<svg width="451" height="155" viewBox="0 0 451 155" fill="none" xmlns="http://www.w3.org/2000/svg">
<path d="M12.0115 5.00397C10.8444 4.9022 9.98027 3.87929 10.0814 2.71922C10.1826 1.55914 11.2107 0.701207 12.3778 0.802974C13.5449 0.904742 14.4091 1.92768 14.3079 3.08775C14.2067 4.24782 13.1786 5.10573 12.0115 5.00397Z" fill="#FFFFF7"/>
<path d="M415.256 152.57C401.586 151.378 391.466 139.397 392.65 125.81C393.835 112.223 405.877 102.175 419.546 103.367C433.216 104.559 443.336 116.539 442.152 130.126C440.967 143.714 428.925 153.762 415.256 152.57Z" fill="url(#paint0_radial_2_5121)"/>
<path opacity="0.03" d="M416.435 139.046C410.28 138.51 405.723 133.115 406.256 126.997C406.789 120.878 412.212 116.354 418.367 116.89C424.522 117.427 429.079 122.822 428.546 128.94C428.012 135.058 422.59 139.583 416.435 139.046Z" fill="#FFE500"/>
<path opacity="0.03" d="M415.728 147.161C405.064 146.231 397.168 136.884 398.093 126.285C399.017 115.685 408.411 107.846 419.075 108.776C429.738 109.706 437.634 119.053 436.709 129.652C435.785 140.252 426.391 148.09 415.728 147.161Z" fill="#FFE500"/>
<path d="M417.218 130.069C416.051 129.967 415.187 128.944 415.288 127.784C415.389 126.624 416.417 125.766 417.584 125.868C418.751 125.97 419.616 126.993 419.514 128.153C419.413 129.313 418.385 130.171 417.218 130.069Z" fill="#FFFFF7"/>
<defs>
<radialGradient id="paint0_radial_2_5121" cx="0" cy="0" r="1" gradientUnits="userSpaceOnUse" gradientTransform="translate(-3371.35 5110.82) rotate(-175.017) scale(424.84 422.285)">
<stop stop-color="#FFE500"/>
<stop offset="0.09" stop-color="#FFE70F" stop-opacity="0.78"/>
<stop offset="0.2" stop-color="#FFE81E" stop-opacity="0.58"/>
<stop offset="0.3" stop-color="#FFE92B" stop-opacity="0.4"/>
<stop offset="0.4" stop-color="#FFEA35" stop-opacity="0.26"/>
<stop offset="0.51" stop-color="#FFEB3D" stop-opacity="0.14"/>
<stop offset="0.61" stop-color="#FFEC42" stop-opacity="0.06"/>
<stop offset="0.71" stop-color="#FFEC46" stop-opacity="0.02"/>
<stop offset="0.81" stop-color="#FFEC47" stop-opacity="0"/>
</radialGradient>
</defs>
</svg>
